<svg width="170" height="44" viewBox="0 0 170 44" fill="none" xmlns="http://www.w3.org/2000/svg">
<path fill-rule="evenodd" clip-rule="evenodd" d="M86.7708 0.212233C84.7706 0.582472 82.6206 1.60289 80.4407 3.21661C76.0385 6.47559 73.0154 11.9351 72.1015 18.2773C71.0818 25.3531 72.8573 32.6723 76.7981 37.638C79.1465 40.597 81.7636 42.3846 85.0203 43.2533C86.2836 43.5904 86.7533 43.6443 88.4 43.6419C91.0479 43.6378 92.8189 43.1523 95.9792 41.5645C97.28 40.911 98.7044 40.4685 99.5079 40.4685C100.666 40.4685 101.577 40.8937 102.601 41.9126L103.556 42.8625L103.593 34.3415L103.629 25.8203L105.223 25.7803C106.127 25.7576 106.817 25.681 106.817 25.6033C106.817 25.517 104.252 25.4665 99.875 25.4665C95.3417 25.4665 92.9333 25.5156 92.9333 25.608C92.9333 25.6953 93.6653 25.7495 94.8458 25.7495H96.7583V31.8095C96.7583 38.6833 96.7403 38.8269 95.7199 40.0774C93.7261 42.521 90.3379 43.7768 87.216 43.2293C84.0127 42.6676 82.3568 40.7665 80.9282 36.0104C80.357 34.1088 79.9208 32.1472 79.7637 30.7738C79.6925 30.1511 79.5514 29.0366 79.4502 28.2971C79.1647 26.2089 79.2077 17.9745 79.5164 15.6302C79.6497 14.6183 79.793 13.4719 79.835 13.0827C80.0483 11.1074 81.1462 7.28768 82.0114 5.51093C83.1919 3.08668 84.3962 1.77556 86.2702 0.874729C90.334 -1.07865 95.16 1.89388 98.394 8.34207C98.819 9.1894 99.1667 9.93257 99.1667 9.99357C99.1667 10.0547 99.3195 10.5199 99.5062 11.0276C99.6931 11.5351 100.023 12.6032 100.239 13.4012C100.455 14.1991 100.685 14.8518 100.749 14.8518C100.814 14.8518 100.867 11.5719 100.867 7.5631C100.867 1.53864 100.834 0.274364 100.675 0.274364C100.57 0.274364 100.227 0.46005 99.9138 0.687062C98.5999 1.63799 98.2202 1.76197 96.6875 1.74074C95.3626 1.72235 95.1608 1.67847 93.5708 1.06254C90.7943 -0.0132224 89.1198 -0.222543 86.7708 0.212233ZM47.6708 0.281441C46.642 0.417874 44.5573 1.10316 43.3292 1.70876C40.8554 2.9286 37.69 5.77389 36.0291 8.27074C32.993 12.8348 31.71 18.0603 32.1232 24.1786C32.5485 30.4746 35.2213 36.0738 39.6307 39.9054C44.0722 43.7649 49.7712 44.9905 54.8457 43.1778C57.397 42.2664 59.4147 40.9363 61.572 38.7443C64.8336 35.4298 66.765 31.5791 67.6637 26.5987C68.3481 22.8057 68.064 18.06 66.9301 14.3435C66.4478 12.7622 64.6924 9.17681 63.7144 7.77539C61.0044 3.89142 56.3037 0.784151 52.3641 0.272666C51.1734 0.118116 48.8705 0.122362 47.6708 0.281441ZM51.2502 0.782028C54.9498 1.54543 57.5641 5.2808 59.3641 12.3751C59.5419 13.0756 59.7319 13.9673 59.7864 14.3565C59.8409 14.7457 60.0276 16.006 60.2014 17.1572C60.4793 18.9993 60.5104 19.661 60.4592 22.6768C60.4145 25.3196 60.331 26.5243 60.094 27.9432C59.2063 33.2578 58.0206 36.8109 56.1705 39.7C53.9063 43.2361 50.2594 44.3967 46.8793 42.6567C46.1852 42.2994 44.3969 40.5317 43.8067 39.6194C42.5989 37.7522 41.4576 34.8958 40.7534 31.9768C39.6052 27.2173 39.3471 23.6729 39.7269 17.8866C39.7981 16.8018 40.3122 13.8539 40.6881 12.3751C40.8463 11.7523 41.0244 11.0199 41.0838 10.7475C41.2046 10.1933 42.0205 7.93914 42.4926 6.85545C43.6075 4.29647 45.4081 2.1843 47.1984 1.33541C48.1498 0.884212 49.0545 0.630026 49.908 0.574122C50.0477 0.564923 50.6516 0.658473 51.2502 0.782028ZM0 1.19048C0 1.3623 0.351758 1.40575 2.00586 1.43816L4.01157 1.47736L4.34237 2.46806C4.52441 3.01295 4.73747 3.58614 4.8161 3.74182C4.89472 3.8975 5.11388 4.47069 5.30301 5.01558C5.67191 6.07846 6.56653 8.55436 7.24625 10.3937C7.47632 11.0164 7.81306 11.9399 7.99453 12.4458C8.17601 12.9518 8.39134 13.525 8.47294 13.7196C8.55468 13.9142 8.78022 14.5192 8.97416 15.0641C9.39604 16.2493 10.6933 19.7875 10.9977 20.5837C11.1169 20.8951 11.4341 21.7867 11.7025 22.5651C11.9711 23.3436 12.253 24.1078 12.3291 24.2635C12.4052 24.4192 12.6344 25.0242 12.8384 25.608C13.3755 27.1446 13.6605 27.9328 14.1695 29.2878C14.4181 29.9494 14.7073 30.7455 14.8122 31.0569C14.9172 31.3682 15.233 32.228 15.5139 32.9675C16.0428 34.3597 16.2881 35.0252 17.2873 37.7795C17.6121 38.6747 18.067 39.9166 18.2982 40.5393C18.5294 41.162 18.855 42.0697 19.0216 42.5561C19.1882 43.0427 19.3593 43.4406 19.4018 43.4406C19.4443 43.4406 19.6898 42.7559 19.9474 41.9192C20.6456 39.6502 21.7923 36.0025 22.1605 34.8782C22.339 34.3333 22.6599 33.3143 22.8736 32.6137C23.0873 31.9131 23.3934 30.926 23.5538 30.42C24.2358 28.269 24.4942 27.4485 24.8683 26.2449C25.0861 25.5443 25.4034 24.5572 25.5732 24.0512C25.7432 23.5452 26.0579 22.5581 26.2726 21.8575C26.8081 20.1098 27.3211 18.4693 27.6224 17.5409C27.7614 17.1128 28.049 16.1893 28.2617 15.4887C28.4743 14.7881 28.7963 13.7691 28.9772 13.2242C29.3195 12.1932 29.8803 10.4124 31.6295 4.80329L32.6666 1.47736L34.4667 1.43773C35.938 1.40532 36.2667 1.36017 36.2667 1.19006C36.2667 1.01187 35.6871 0.982008 32.2292 0.982008C28.7347 0.982008 28.1917 1.0106 28.1917 1.1943C28.1917 1.37249 28.4968 1.40659 30.0879 1.40659H31.9839L31.7285 2.14962C31.588 2.55836 31.2708 3.56137 31.0236 4.3787C30.7764 5.19603 30.4599 6.21503 30.3204 6.64316C30.1808 7.07128 29.9027 7.96292 29.7024 8.62456C29.5021 9.28621 29.0201 10.8466 28.6314 12.092C28.2427 13.3375 27.756 14.9297 27.5502 15.6302C27.3442 16.3308 27.0612 17.2543 26.9211 17.6824C26.781 18.1105 26.4949 19.034 26.2853 19.7346C26.0756 20.4351 25.7519 21.486 25.5659 22.0698C25.1651 23.328 24.6632 24.9406 24.1563 26.5987C23.9541 27.2604 23.6379 28.2794 23.4538 28.8632C23.2697 29.447 23.0157 30.2749 22.8894 30.7031C22.5264 31.9338 22.4611 31.9552 22.105 30.9606C21.7786 30.0495 21.6217 29.6271 20.7739 27.3771C20.5098 26.6766 20.2139 25.8486 20.116 25.5373C20.0181 25.2259 19.8911 24.9074 19.8339 24.8296C19.7765 24.7518 19.6946 24.5289 19.6519 24.3343C19.6091 24.1397 19.3085 23.2799 18.9838 22.4236C18.6591 21.5674 18.3402 20.7076 18.275 20.513C18.2098 20.3184 17.8936 19.4586 17.5722 18.6023C17.2509 17.7461 16.9613 16.95 16.9289 16.8332C16.8964 16.7165 16.6395 16.0159 16.3578 15.2764C16.0763 14.5369 15.7596 13.6771 15.654 13.3658C15.5485 13.0544 15.1972 12.0991 14.8732 11.2428C14.5493 10.3866 14.2493 9.52681 14.2065 9.33221C14.1637 9.1376 14.082 8.9147 14.0249 8.83686C13.9678 8.75902 13.7765 8.24951 13.6 7.70463C13.4235 7.15974 13.2325 6.65024 13.1758 6.5724C13.119 6.49455 12.897 5.92136 12.6824 5.29864C12.0745 3.53561 11.8038 2.79457 11.5593 2.22491C11.4351 1.93549 11.3333 1.63304 11.3333 1.55265C11.3333 1.46009 11.9813 1.40659 13.1042 1.40659C14.5837 1.40659 14.875 1.37164 14.875 1.1943C14.875 1.00833 13.9542 0.982008 7.4375 0.982008C0.982459 0.982008 0 1.00961 0 1.19048ZM105.117 1.1943C105.117 1.37319 105.439 1.40659 107.171 1.40659H109.225V17.1886C109.225 34.4108 109.238 34.714 110.029 36.4568C111.667 40.0662 115.079 42.3333 120.123 43.1645C122.995 43.6378 126.53 43.4306 128.633 42.6658C128.984 42.5383 129.431 42.3827 129.626 42.32C131.027 41.8714 133.08 40.3467 134.119 38.9825C134.674 38.2525 134.993 37.638 135.33 36.6473L135.788 35.3027L135.826 18.3547L135.865 1.40659H139.616H143.367V21.8575V42.3084H141.596C139.919 42.3084 139.825 42.3236 139.825 42.5915C139.825 42.8727 139.919 42.8745 154.913 42.8745H170V34.8782C170 29.6416 169.951 26.8818 169.858 26.8818C169.779 26.8818 169.716 27.2727 169.714 27.7663C169.713 28.2529 169.618 29.2878 169.504 30.0662C168.933 33.9509 167.837 36.245 165.395 38.6672C163.876 40.1737 162.328 41.105 160.165 41.8126L158.65 42.3084H154.479H150.308V31.9795V21.6506L150.677 21.5583C150.879 21.5075 151.798 21.497 152.718 21.5348C154.267 21.5985 154.459 21.6386 155.287 22.0694C155.78 22.3254 156.365 22.669 156.588 22.8331C157.641 23.6085 158.914 26.0095 159.482 28.2913C159.696 29.1506 159.919 29.8537 159.977 29.8539C160.035 29.8539 160.083 26.0288 160.083 21.3538C160.083 13.6144 159.988 11.4401 159.757 13.9131C159.554 16.0862 158.713 18.2896 157.691 19.3251C157.41 19.6103 156.701 20.074 156.117 20.3553L155.054 20.8668L152.681 20.9115L150.308 20.9562V11.1814V1.40659H153.611C158.398 1.40659 160.432 1.73791 162.546 2.86236C164.136 3.70757 165.775 5.52452 166.788 7.56437C167.818 9.63791 168.231 11.121 168.995 15.4887C169.073 15.9382 169.124 13.422 169.134 8.58918L169.15 0.982008H149.812C132.718 0.982008 130.475 1.00663 130.475 1.1943C130.475 1.37447 130.829 1.40659 132.812 1.40659H135.15V18.322V35.2374L134.793 36.259C134.283 37.7175 133.661 38.6715 132.551 39.703C131.073 41.0751 129.497 41.8064 127.208 42.1823C125.494 42.4637 122.882 41.9494 120.842 40.9291C118.67 39.8426 116.755 37.5579 116.326 35.5435C116.213 35.0118 116.167 29.9354 116.167 18.1001V1.40659H118.15C119.819 1.40659 120.133 1.37291 120.133 1.1943C120.133 1.00833 119.205 0.982008 112.625 0.982008C106.045 0.982008 105.117 1.00833 105.117 1.1943Z" fill="white"/>
</svg>
