<svg width="155" height="45" viewBox="0 0 155 45" fill="none" xmlns="http://www.w3.org/2000/svg">
<path fill-rule="evenodd" clip-rule="evenodd" d="M27.3201 0.249596C26.0655 0.799426 24.7409 2.44351 24.2596 4.04795C24.0569 4.72356 24.0557 5.01244 24.2525 5.77384C24.5412 6.89026 25.1973 7.61598 26.5341 8.29719C27.0897 8.5803 27.5879 8.92613 27.6412 9.06562C27.7937 9.46407 28.8373 9.59832 29.3192 9.28133C29.6963 9.03354 29.7984 9.04381 30.4758 9.39793C31.1973 9.77529 31.2343 9.77728 31.7595 9.46605C32.2089 9.19969 32.3269 9.18726 32.4568 9.39306C32.5428 9.5293 32.6144 9.76232 32.6159 9.91099C32.6175 10.0597 32.8672 10.7079 33.1705 11.3514C33.6864 12.4451 33.7045 12.5517 33.4493 12.9849C33.2079 13.3951 33.2068 13.5365 33.4396 14.2145C33.6835 14.9247 33.6756 15.042 33.3315 15.8225C32.9088 16.7809 32.9667 17.2576 33.621 18.215L34.0617 18.86L33.7507 20.0498C33.4841 21.0696 33.4708 21.3909 33.6578 22.299C33.9202 23.5742 33.9344 26.144 33.6916 28.4571C33.5375 29.9251 33.5522 30.1959 33.8008 30.4715C33.9965 30.6886 34.0447 30.9227 33.952 31.2082C33.7905 31.7054 33.7828 31.7627 33.5215 34.42C33.4096 35.5598 33.2029 36.7546 33.0622 37.0752C32.8271 37.6115 32.7678 37.6432 32.3204 37.4726C32.053 37.3706 30.6637 37.2486 29.2333 37.2015C26.7191 37.1188 26.6178 37.1295 26.1939 37.525C25.9527 37.7499 25.6851 38.1165 25.5993 38.3396C25.4286 38.7826 24.9997 38.8763 24.7738 38.5198C24.6953 38.396 24.453 37.8584 24.2351 37.3255C23.8784 36.4524 23.8655 36.3165 24.1042 35.951C24.6168 35.166 24.7095 34.4656 24.4155 33.5998C24.1992 32.9629 24.1827 32.6782 24.34 32.296C24.4508 32.0269 24.5816 30.9148 24.6308 29.8245C24.6798 28.7342 24.7684 27.2125 24.8275 26.4428C24.9008 25.4875 24.8677 24.9622 24.7231 24.7874C24.5692 24.6014 24.5638 24.4327 24.7034 24.1712C24.9408 23.7258 24.9548 22.7641 24.7256 22.6221C24.6322 22.5643 24.5608 21.9716 24.5665 21.305C24.5746 20.3967 24.46 19.8043 24.1096 18.9406C23.5305 17.5129 22.6317 16.0853 22.2323 15.958C22.0669 15.9054 21.8303 15.6328 21.7066 15.3523C21.4706 14.8175 20.5095 14.1901 19.5969 13.9757C19.3005 13.906 18.8759 13.6783 18.6532 13.4698C18.3477 13.1837 17.9071 13.0602 16.8571 12.9663C16.092 12.8978 15.2227 12.7614 14.9254 12.663C14.327 12.4648 13.7827 12.6025 13.4171 13.0445C13.2486 13.2482 12.8746 13.3356 12.1661 13.337C11.61 13.3381 10.7829 13.4524 10.3278 13.5909C9.81498 13.7472 9.04212 13.8121 8.29459 13.7616C7.15371 13.6848 7.0551 13.7099 6.46652 14.2285C6.12419 14.53 5.74611 14.7778 5.62595 14.7791C5.50597 14.7803 5.01869 15.2264 4.54326 15.7703C4.06442 16.3181 3.52667 16.7591 3.33718 16.7591C2.82673 16.7591 1.86151 17.6955 1.38483 18.6533C0.999744 19.4268 0.970288 19.6726 1.04249 21.5084C1.13715 23.9141 1.39435 24.5688 2.58049 25.4234C3.26606 25.9175 3.59636 26.0314 4.41233 26.0552C4.95978 26.0711 5.69061 26.1415 6.03636 26.2118C6.53621 26.3134 6.7918 26.2534 7.28393 25.919C8.21969 25.2828 8.59436 24.4918 8.69332 22.9436C8.76822 21.7728 8.72996 21.5324 8.39571 21.0788C7.76492 20.2228 7.90502 19.8825 9.04679 19.4971C9.50085 19.3439 9.79774 19.3579 10.3678 19.5598C10.7723 19.7029 11.2826 19.775 11.5017 19.7196C11.7465 19.658 11.9902 19.7281 12.1336 19.9013C12.4094 20.2349 13.236 20.266 14.0425 19.9735C14.5179 19.8011 14.732 19.8169 15.2498 20.0637C15.5961 20.2285 16.2385 20.3633 16.6775 20.3633C17.7573 20.3633 18.1151 20.7795 18.2139 22.15C18.2556 22.7286 18.1925 23.7802 18.0738 24.4866C17.883 25.6214 17.806 25.7842 17.4119 25.8835C17.1668 25.9451 16.779 25.9101 16.5502 25.8056C16.1073 25.603 16.1126 25.6011 14.0335 26.7896C13.1651 27.286 12.9711 27.3338 12.5186 27.1624C12.1 27.0038 11.9107 27.0244 11.5389 27.2689C11.2854 27.4354 10.7491 27.5719 10.347 27.5719C9.94484 27.5719 9.43691 27.6841 9.21814 27.8213C8.99938 27.9584 8.26424 28.124 7.58477 28.1891C6.21866 28.3201 5.39749 28.6585 5.24015 29.1556C5.16184 29.4034 4.99642 29.4652 4.55099 29.4131C4.07718 29.3576 3.78441 29.4888 3.02089 30.0986C1.84517 31.0379 1.16229 32.022 0.453193 33.7988C0.0623619 34.7782 -0.0619282 35.321 0.027697 35.6571C0.0973856 35.9182 0.175695 36.8226 0.201739 37.6667C0.256879 39.4611 0.560778 40.3142 1.36022 40.9201C1.67813 41.161 2.11279 41.5535 2.32598 41.7921C3.74382 43.3794 3.81656 43.4306 4.6575 43.4306C5.24087 43.4306 5.6132 43.5483 5.97763 43.8478C7.54077 45.1324 8.24412 45.2693 9.95077 44.6209C10.5094 44.4088 11.4836 44.3124 13.4832 44.2715L16.2443 44.2151L16.8625 43.6705C17.2025 43.3708 17.8491 43.0327 18.2994 42.919C18.7748 42.7988 19.3501 42.4791 19.6721 42.1561C20.408 41.4176 21.0948 41.5436 21.7955 42.5452C22.1003 42.981 22.6573 43.4364 23.2422 43.7278C24.097 44.1538 24.3348 44.1922 25.589 44.1059C26.3565 44.0531 27.1241 44.0882 27.2948 44.1841C27.5202 44.3106 27.7774 44.2562 28.2361 43.9846C28.5833 43.779 29.229 43.5194 29.671 43.4077C30.3781 43.2291 30.5193 43.2453 30.8475 43.5429C31.1223 43.7923 31.5098 43.8846 32.3235 43.8943C32.9304 43.9015 33.688 44.0201 34.007 44.1578C34.4892 44.3657 34.7168 44.3688 35.354 44.176C35.7759 44.0484 36.2422 43.9491 36.3904 43.9554C36.5386 43.9617 37.9934 43.9979 39.6234 44.0358C41.2533 44.0736 42.7924 44.1879 43.0437 44.2897C43.3846 44.4277 43.6579 44.4065 44.1213 44.2059C44.4628 44.0581 45.2723 43.9239 45.9199 43.9076C46.7016 43.888 47.2604 43.771 47.5813 43.56C48.033 43.263 48.0948 43.2617 48.5176 43.5396C48.8413 43.7525 49.2054 43.8105 49.7965 43.7436C50.3825 43.6773 50.8475 43.7499 51.3962 43.9936C52.1574 44.3313 52.1835 44.3313 53.0452 43.9905C53.8657 43.6661 54.0498 43.6593 55.977 43.8837C57.5159 44.0628 58.2198 44.0732 58.7744 43.9257C59.3639 43.7685 59.7585 43.7883 60.7038 44.0224C61.7832 44.2897 61.9623 44.2911 62.6569 44.0377C63.0775 43.8844 63.8662 43.7608 64.4095 43.7629C65.6028 43.7676 66.0526 43.505 66.7557 42.3926C67.8118 40.7215 67.2414 38.5623 65.5751 37.9238C64.592 37.547 62.585 37.6411 61.3947 38.1194C60.6794 38.407 60.5714 38.4082 59.8621 38.1365C59.4424 37.9756 58.9592 37.844 58.7884 37.844C58.5991 37.844 58.3274 37.5337 58.093 37.0494C57.7086 36.2556 57.7084 36.2527 58.0315 34.3913C58.2094 33.3663 58.3426 32.1222 58.3275 31.6267C58.3123 31.1311 58.2798 29.9552 58.2552 29.0136C58.2302 28.0554 58.095 27.0002 57.948 26.6173C57.7126 26.0033 57.7174 25.8433 57.9942 25.0613C58.3881 23.9487 58.382 23.6414 57.9475 22.6807C57.6369 21.9941 57.5917 21.4931 57.5883 18.703C57.5849 15.8876 57.6285 15.3985 57.9585 14.5585C58.2209 13.8905 58.3148 13.3098 58.2728 12.6145C58.2279 11.8695 58.3468 11.2298 58.7511 10.0413L59.2892 8.45956L58.7827 7.51831C58.4883 6.97136 58.0693 5.64283 57.7822 4.34674C57.3025 2.18058 57.268 2.10092 56.5832 1.58588C56.0021 1.14886 55.7674 1.07533 55.2494 1.16796C54.9036 1.22977 54.3783 1.2705 54.0819 1.25843C53.7856 1.24635 52.8965 1.22167 52.1062 1.20346C51.3159 1.18544 50.4879 1.06668 50.2663 0.939632C50.0447 0.812582 49.6001 0.724998 49.2785 0.745001C48.9568 0.765005 48.3533 0.605336 47.9375 0.390342C47.5215 0.175168 46.9962 -0.000359872 46.77 5.5408e-07C45.6848 0.00180268 44.4004 1.53271 43.8386 3.49415C43.5006 4.67365 43.5554 5.56119 44.0276 6.55957C44.3934 7.33305 45.6775 8.28908 46.3506 8.28908C46.6752 8.28908 46.8656 8.41829 46.978 8.71492C47.1535 9.17789 47.7069 9.41216 48.0794 9.18113C48.2121 9.09895 48.5275 9.14743 48.8088 9.2934C49.4459 9.62391 49.9392 9.62013 50.2187 9.28223C50.5397 8.89405 50.6999 9.07372 51.0208 10.1811C51.1776 10.7225 51.4709 11.446 51.6725 11.7888C52.0216 12.3826 52.0245 12.4342 51.7328 12.8809C51.4844 13.2613 51.4654 13.4351 51.6317 13.8014C51.9081 14.4102 51.8801 15.3093 51.5674 15.858C51.1119 16.6574 51.2225 17.2356 52.0545 18.4053C52.3307 18.7935 52.3361 18.9108 52.1073 19.5555C51.7964 20.4316 51.7689 21.8301 52.038 23.0891C52.1876 23.7888 52.1851 24.8137 52.0285 27.0829C51.8327 29.9177 51.8402 30.1603 52.1335 30.4855C52.3818 30.7607 52.4064 30.9051 52.2487 31.1585C52.1382 31.336 51.9548 32.4464 51.8413 33.6263C51.7276 34.8062 51.5652 35.9337 51.4803 36.132C51.3953 36.3302 51.2759 36.7227 51.2146 37.0044C51.127 37.4072 51.0379 37.4861 50.7965 37.374C50.6279 37.2958 49.6411 37.2102 48.6038 37.1837C47.5666 37.1574 46.2914 37.1251 45.7698 37.1122C45.1067 37.0956 44.6815 37.1884 44.3554 37.4212C43.046 38.3553 42.9442 38.3991 42.3175 38.2967C40.5038 38.0002 40.4907 37.9947 40.2439 37.4019C39.8513 36.4591 39.7591 35.1311 39.9995 33.8793C40.1232 33.2351 40.2076 32.2619 40.1872 31.7168C40.1665 31.1716 40.1539 30.0429 40.1593 29.2086C40.1654 28.2219 40.0668 27.4232 39.877 26.9247C39.6061 26.2129 39.607 26.0921 39.8915 25.2327C40.2261 24.2219 40.1841 23.3857 39.7417 22.2556C39.528 21.7095 39.4576 20.829 39.4517 18.6259C39.4448 16.102 39.4908 15.6133 39.799 14.9315C40.051 14.3741 40.1554 13.7492 40.1582 12.7803C40.1613 11.7463 40.2712 11.1458 40.6112 10.306C41.1723 8.92036 41.1766 8.24979 40.6301 7.31376C40.3935 6.90865 39.9854 5.6039 39.723 4.4145C39.297 2.48316 39.1846 2.1995 38.6712 1.76122C37.9508 1.14579 37.2676 1.05947 36.4353 1.47865C36.1226 1.63615 35.9227 1.62426 35.5518 1.42639C35.2364 1.25807 34.6157 1.18454 33.7358 1.21139C33.0006 1.23374 32.2331 1.16292 32.0302 1.05389C31.8272 0.945039 31.3125 0.86286 30.8862 0.87151C30.4119 0.881061 29.7437 0.715446 29.1647 0.444947C28.077 -0.0630737 28.0419 -0.0668581 27.3201 0.249596ZM138.049 10.3877C137.901 10.4488 137.642 10.6187 137.474 10.7656C137.274 10.9402 136.711 11.0453 135.846 11.0696C134.672 11.1024 134.402 11.1808 133.457 11.7627C131.792 12.7881 130.326 14.0226 130.326 14.3997C130.326 14.7504 129.995 14.957 129.432 14.957C128.668 14.957 127.214 17.2177 126.731 19.1579C126.551 19.8831 126.065 21.1092 125.652 21.8829C124.859 23.3652 124.528 25.0287 124.894 25.6849C125.023 25.9159 124.995 26.2468 124.797 26.8303C124.56 27.5266 124.55 27.8725 124.729 29.1159C125.132 31.9107 125.497 32.9473 126.953 35.4268C127.723 36.7377 128.42 38.1635 128.528 38.6451C128.797 39.85 129.032 40.2262 130.028 41.0482C131.216 42.0293 132.551 42.6476 133.788 42.7896C134.7 42.8943 134.92 43.003 135.605 43.6903C136.158 44.2452 136.586 44.505 137.082 44.5861C138.289 44.7836 140.263 44.7534 141.081 44.525C141.586 44.3841 142.327 44.3484 143.149 44.4257L144.431 44.5463L147.661 42.9269C149.438 42.0361 151.068 41.2542 151.285 41.1889C151.891 41.0062 152.764 39.8919 153.472 38.3958C154.03 37.2165 154.116 36.8575 154.12 35.6833C154.125 34.084 153.672 33.1381 152.746 32.8139C152.028 32.563 150.29 32.5611 149.616 32.8107C149.12 32.9943 147.532 34.7117 146.851 35.8006C146.676 36.0821 146.096 36.7373 145.564 37.2571C144.649 38.1505 144.534 38.2077 143.452 38.3079C142.822 38.3661 142.112 38.4883 141.873 38.5795C141.232 38.8236 140.516 38.7813 140.077 38.4731C139.865 38.3236 139.22 38.1511 138.645 38.09C137.746 37.9943 137.502 37.8815 136.891 37.2807C136.324 36.7218 136.049 36.5825 135.512 36.5825C134.654 36.5825 133.733 35.744 133.333 34.6002C132.982 33.596 132.48 31.4012 132.481 30.8748C132.482 30.3452 133.493 30.0154 134.682 30.1567C135.173 30.215 135.923 30.1695 136.349 30.0552C136.958 29.8917 137.278 29.8988 137.85 30.0884C138.526 30.312 138.652 30.2956 139.626 29.857C140.739 29.356 140.748 29.3556 143.765 29.7449C145.633 29.986 146.743 29.9561 147.842 29.6355C148.712 29.3817 148.89 29.3826 149.791 29.6454C150.62 29.8872 150.904 29.8982 151.521 29.7128C152.624 29.3814 153.796 28.261 154.105 27.2441C154.245 26.78 154.529 26.0253 154.735 25.5665C155.17 24.5987 155.069 23.5787 154.436 22.5461C154.172 22.1143 154.105 21.8222 154.209 21.5482C154.301 21.3059 154.258 20.8937 154.095 20.4468C153.952 20.0539 153.647 19.2008 153.418 18.5506C152.629 16.3098 152.095 15.532 150.94 14.9377C150.572 14.7481 150.155 14.37 150.015 14.0975C149.7 13.4868 147.838 12.423 145.855 11.7205C145.055 11.4372 144.083 10.9876 143.694 10.7212C143.074 10.2956 142.88 10.2516 142.091 10.3579C141.025 10.5014 141.154 10.5005 139.576 10.3758C138.885 10.3212 138.198 10.3266 138.049 10.3877ZM96.0409 11.2862C94.5979 11.9251 93.7018 13.5363 94.0618 14.8443C94.3716 15.9699 95.7352 17.4082 96.9923 17.9353C97.8341 18.2882 98.492 18.2698 99.2538 17.8719L99.8824 17.5436L100.934 18.0876C102.529 18.913 102.577 19.0372 102.577 22.4273C102.577 28.0283 102.324 36.4998 102.138 37.1345C102 37.605 101.751 37.8883 101.208 38.1945C100.523 38.5809 100.396 38.5962 99.5122 38.398C98.3191 38.13 97.3406 38.3816 96.6135 39.1432C96.158 39.62 96.1106 39.7921 96.1106 40.9646C96.1106 42.1639 96.1549 42.3145 96.7132 43.0111C97.5261 44.0257 98.1427 44.2718 99.0264 43.935C99.6924 43.6813 99.949 43.6773 101.623 43.8959C102.104 43.9586 102.742 43.9145 103.108 43.7936C103.667 43.6085 103.853 43.6317 104.561 43.9756C105.282 44.3259 105.602 44.3628 107.414 44.3052C109.048 44.2531 109.525 44.1769 109.805 43.9229C110.131 43.6269 110.2 43.6251 110.847 43.8963C111.451 44.1495 111.761 44.1594 113.255 43.9734C114.198 43.8561 115.145 43.7265 115.36 43.6854C116.302 43.5056 117.574 41.8519 117.574 40.8069C117.574 40.1212 117.078 39.174 116.436 38.6314C115.922 38.1979 115.794 38.1711 114.796 38.287C113.351 38.4546 111.353 38.4099 110.531 38.1913C110.159 38.0923 109.453 37.6342 108.933 37.1541L108.001 36.2942L108.235 33.1298C108.364 31.3895 108.425 29.1624 108.371 28.1808C108.255 26.0642 108.483 25.4706 109.925 24.1471C110.523 23.5982 111 22.9211 111.404 22.0474C111.89 20.9979 112.177 20.6311 112.946 20.0754C113.466 19.6998 114.234 19.0838 114.651 18.7066C115.849 17.6245 116.439 17.9011 115.887 19.286C115.293 20.7744 115.659 22.0159 117.166 23.6329C117.71 24.2156 118.23 24.5793 118.721 24.7198C119.128 24.8359 119.581 25.0289 119.729 25.1487C120.293 25.6047 120.737 25.6029 121.414 25.1419C121.781 24.8925 122.116 24.6885 122.16 24.6885C122.204 24.6885 122.715 24.3255 123.297 23.8818C124.904 22.6553 125.261 21.5333 124.667 19.5688C124.519 19.0822 124.399 18.0642 124.399 17.3062C124.399 15.9593 124.381 15.9024 123.577 14.7668C123.125 14.128 122.607 13.3215 122.426 12.9746C122.244 12.6277 121.838 12.0818 121.523 11.7616C120.996 11.2255 120.863 11.1806 119.846 11.1959C119.238 11.2049 118.43 11.153 118.05 11.0806C116.976 10.8759 115.189 11.4311 114.374 12.2222C114.01 12.5758 113.638 12.8443 113.546 12.8193C113.455 12.794 113.08 12.8243 112.713 12.8865C112.217 12.9706 111.767 13.2776 110.959 14.0824C109.486 15.5517 109.179 15.5052 108.75 13.7486C108.368 12.1855 108.047 11.656 107.254 11.2781C106.546 10.9413 105 10.9043 104.173 11.2044C103.703 11.3747 103.53 11.3678 103.291 11.1691C103.066 10.9816 102.255 10.9193 99.9508 10.9119C97.2242 10.9032 96.8179 10.942 96.0409 11.2862ZM80.0916 11.5212C78.9031 11.8294 76.6414 14.1883 76.2298 15.549C76.0592 16.1128 76.0744 16.3383 76.318 16.8505C76.9132 18.1028 79.0748 19.1213 80.3552 18.7528C80.7716 18.6329 81.0288 18.6773 81.4656 18.9438C81.7785 19.1347 82.4385 19.3778 82.9326 19.4841C83.6195 19.6319 83.8797 19.785 84.0385 20.1345C84.2258 20.547 84.1895 20.6391 83.6674 21.0763C82.9745 21.6567 82.9181 22.2727 83.4476 23.474C83.7924 24.2561 83.7951 24.3381 83.5164 25.5764C83.238 26.8133 83.2407 26.8997 83.5848 27.7301L83.9429 28.5951L83.5462 29.8406C82.9526 31.7041 82.4974 32.4836 80.5158 35.0312C78.0816 38.1605 78.2574 38.0242 76.6551 38.0242C75.0616 38.0242 74.5106 37.746 73.3542 36.358L72.5817 35.4304V32.0837C72.5817 28.9595 72.5564 28.702 72.2011 28.212C71.8399 27.7139 71.8331 27.6322 72.0693 26.6171C72.2062 26.0285 72.4731 25.3286 72.6624 25.0617C73.3068 24.1538 73.303 23.7056 72.6439 22.784C72.1173 22.0474 72.0433 21.8069 72.046 20.838C72.0481 20.099 72.1819 19.4228 72.4501 18.7982C72.8853 17.7843 72.9722 16.3925 72.6688 15.2968C72.4362 14.4569 70.8386 12.9283 69.5772 12.3392C68.4981 11.8351 66.8491 11.7351 66.297 12.1402C66.0078 12.3523 65.858 12.3403 65.2299 12.0541C64.2378 11.6019 63.4836 11.6299 62.4455 12.1577C61.0946 12.8445 60.8712 13.2431 60.7226 15.2314C60.5755 17.2001 60.6946 17.6288 61.6685 18.6347C62.8165 19.8205 63.8532 20.1734 65.1119 19.8065C65.5382 19.6823 65.8388 21.1491 66.0274 24.274C66.1438 26.2041 66.1431 27.3529 66.0249 27.6647C65.9267 27.9238 65.8464 29.3745 65.8464 30.8881C65.8464 33.394 65.892 33.7923 66.3568 35.3367C67.1203 37.8746 68.4509 40.3504 70.0981 42.2983C71.0926 43.4744 71.6846 43.9006 72.7039 44.1742C73.3702 44.3529 73.5987 44.3436 74.0475 44.1188C74.5459 43.8692 74.6225 43.8757 75.0219 44.2007C75.3921 44.5018 75.613 44.5348 76.5331 44.4263C77.9503 44.2594 78.1778 44.2589 79.161 44.4193C79.9878 44.5542 80.007 44.5454 82.2747 43.0017C83.5298 42.1473 84.5823 41.4483 84.6134 41.4483C84.6447 41.4483 84.7548 41.6914 84.8579 41.9884C84.9611 42.2855 85.2316 42.6058 85.4592 42.7002C85.6868 42.7946 86.4567 43.1214 87.1705 43.4261C87.9915 43.7768 88.6232 43.9413 88.8897 43.8743C89.1284 43.8141 89.7341 43.9294 90.2862 44.1399C91.6521 44.6607 92.0124 44.6197 92.7025 43.8637C93.3044 43.2043 94.0754 42.7098 94.5016 42.7098C94.6313 42.7098 94.905 42.496 95.1096 42.2349C95.5581 41.6631 95.6264 39.9083 95.2301 39.1397C94.8747 38.4501 93.7464 37.8728 92.5029 37.7443C90.4798 37.5351 90.0049 37.1505 90.2754 35.9402C90.5301 34.8 90.4466 29.9244 90.1601 29.2168C89.7775 28.272 89.855 26.8957 90.351 25.8267C91.0709 24.2756 91.435 17.7339 90.8999 15.9645C90.7528 15.478 90.6325 14.7621 90.6325 14.3738C90.6325 12.9804 89.3318 12.2574 86.6435 12.1564C85.7426 12.1226 85.117 12.0047 84.8525 11.8187C84.3444 11.4617 83.6559 11.4515 83.2771 11.7955C83.0235 12.0258 82.8346 12.0188 81.7362 11.7385C81.0478 11.563 80.3078 11.4651 80.0916 11.5212ZM142.039 17.57C142.403 17.8178 142.94 18.0206 143.233 18.0206C143.539 18.0206 144.328 18.3529 145.084 18.7998C146.199 19.4594 146.437 19.6879 146.637 20.2866C147.128 21.7636 146.293 23.3122 144.785 23.7211C141.427 24.6311 141.6 24.6153 140.126 24.1512C138.965 23.786 138.682 23.756 138.086 23.9354C137.516 24.1067 137.261 24.0914 136.645 23.8487C136.002 23.5949 135.719 23.5834 134.615 23.7663C133.514 23.9487 133.273 23.9391 132.907 23.6987C132.362 23.3399 132.347 22.5585 132.865 21.4839C133.333 20.5136 134.111 20.0045 135.127 20.0036C135.827 20.0029 135.914 19.9487 136.239 19.3096C136.674 18.4554 137.124 18.1509 138.802 17.5774C140.486 17.0018 141.204 17.0002 142.039 17.57ZM18.8833 31.5584C18.951 31.8678 18.9501 32.7234 18.8813 33.4598L18.7563 34.7986L17.8597 35.2852C16.3589 36.0994 15.4068 36.9114 14.7014 37.9788L14.029 38.9966L12.5921 39.006C11.6204 39.0123 10.9675 39.1123 10.5755 39.3149C9.98094 39.6222 9.45595 39.5816 8.82031 39.1794C8.62274 39.0543 8.15845 38.8964 7.78845 38.8287C7.28213 38.7357 6.97913 38.5211 6.56172 37.9593C6.05593 37.2787 6.01678 37.1291 6.11503 36.252C6.24004 35.1347 6.88465 33.8827 7.33565 33.8808C7.64189 33.8793 9.64974 32.9671 10.0517 32.6467C10.384 32.3817 11.4044 32.2205 13.1309 32.1597C14.5218 32.1107 17.7223 31.4052 18.0513 31.0748C18.3281 30.7971 18.7732 31.0559 18.8833 31.5584Z" fill="white"/>
</svg>
