<svg width="189" height="38" viewBox="0 0 189 38" fill="none" xmlns="http://www.w3.org/2000/svg">
<path fill-rule="evenodd" clip-rule="evenodd" d="M156.482 0.338925C154.796 0.493561 153.386 0.628646 153.349 0.639409C153.312 0.650172 153.312 1.0785 153.349 1.59139C153.41 2.43595 153.479 2.53458 154.074 2.63694L154.731 2.75006L154.787 19.2506L154.843 35.7514L154.389 35.8705C154.013 35.9691 153.947 36.1332 154.005 36.8299L154.074 37.6705L157.851 37.7307L161.628 37.7907V36.7972C161.628 35.8966 161.579 35.8035 161.106 35.8035C160.75 35.8035 160.543 35.6464 160.452 35.3092C160.38 35.0373 160.319 26.9815 160.317 17.4075C160.315 0.965375 160.293 0.0015384 159.931 0.0289951C159.721 0.0450297 158.168 0.184509 156.482 0.338925ZM175.643 0.341341C174.017 0.496197 172.656 0.631063 172.619 0.640948C172.582 0.650832 172.582 1.07894 172.619 1.59249C172.677 2.39883 172.761 2.53655 173.234 2.60311C173.535 2.6455 173.854 2.79377 173.942 2.93259C174.031 3.07141 174.104 10.4772 174.106 19.3899L174.11 35.5948L173.549 35.8085C173.065 35.9933 172.998 36.1345 173.056 36.8464L173.124 37.6705L176.683 37.7309L180.241 37.7913V36.7974C180.241 36.0602 180.156 35.8035 179.913 35.8035C179.625 35.8035 179.584 34.4423 179.584 24.8698C179.584 12.5508 179.543 12.8737 181.083 13.0024C181.879 13.0689 181.884 13.0757 182.026 14.2775C182.207 15.815 182.25 34.6488 182.074 35.3092C182.001 35.5812 181.805 35.8035 181.639 35.8035C181.426 35.8035 181.336 36.0967 181.336 36.7919V37.7803H185.168H189V36.7919C189 35.9704 188.93 35.8035 188.588 35.8035C188.345 35.8035 188.121 35.5998 188.043 35.3092C187.971 35.0373 187.91 29.6967 187.908 23.4409C187.905 11.1358 187.912 11.2153 186.711 10.104C186.162 9.59577 185.958 9.55491 183.962 9.55491C181.568 9.55491 181.042 9.77742 180.077 11.2001L179.584 11.9263V5.96314V0L179.091 0.029652C178.821 0.046126 177.268 0.186266 175.643 0.341341ZM0.0674442 1.5837C0.123721 2.35754 0.22204 2.52909 0.670061 2.63408C1.03465 2.71975 1.25516 2.96751 1.36158 3.41165C1.44742 3.77013 2.28631 11.6497 3.22549 20.922L4.93349 37.7803H7.38184H9.83019L9.95063 37.0665C10.0168 36.6737 10.4435 32.9724 10.8988 28.8409C11.354 24.7094 11.7548 21.3575 11.7894 21.3922C11.824 21.4269 12.2483 24.906 12.7323 29.1236C13.2162 33.3412 13.6609 37.0142 13.7205 37.2861C13.8249 37.7619 13.9184 37.7803 16.2201 37.7803H18.6111L18.7387 36.8468C18.8088 36.3335 19.6013 28.5679 20.4997 19.59C21.3979 10.6123 22.1937 3.16806 22.2682 3.04769C22.3424 2.9271 22.64 2.7382 22.9292 2.62771C23.3646 2.46165 23.4554 2.27429 23.4554 1.54306V0.65896H20.7183H17.9811V1.6474C17.9811 2.45287 18.054 2.63584 18.3752 2.63584C18.9553 2.63584 19.2943 3.0747 19.3002 3.83295C19.307 4.71485 17.4606 24.0298 17.392 23.7944C17.1711 23.0361 15.1565 3.49248 15.2691 3.19859C15.3483 2.99146 15.6459 2.73292 15.9306 2.62442C16.3565 2.46209 16.4483 2.27033 16.4483 1.54306V0.65896H12.6162H8.78415V1.6474C8.78415 2.4946 8.84766 2.63584 9.22889 2.63584C9.80216 2.63584 9.79866 2.62222 10.2184 6.36994L10.5754 9.55491L9.74173 17.1769C9.2832 21.369 8.87218 24.7626 8.82817 24.7184C8.73576 24.626 6.81842 4.36978 6.81536 3.45405C6.81382 3.00508 6.95747 2.7896 7.36082 2.63584C7.81957 2.46077 7.90826 2.28395 7.90826 1.54306V0.65896H3.95424H0L0.0674442 1.5837ZM91.2856 0.990417C90.589 1.38382 90.0236 2.3672 90.0236 3.18497C90.0236 4.24875 90.8752 5.38787 92.3482 6.29438C92.7273 6.52765 92.6406 6.67087 91.2785 8.06127L89.7963 9.57446L90.4445 10.1974L91.0926 10.8203L91.9569 10.1337C94.3039 8.26906 95.9359 5.87133 95.9359 4.28719C95.9359 3.57837 94.9085 1.70033 94.2649 1.23313C93.5022 0.679387 92.0458 0.560775 91.2856 0.990417ZM104.257 1.63422C104.257 2.60245 104.263 2.6097 105.078 2.67757L105.899 2.74566V19.2197V35.6936L105.078 35.7617C104.263 35.8296 104.257 35.8369 104.257 36.8051V37.7803H108.855H113.454V36.7919C113.454 35.8382 113.43 35.8035 112.791 35.8035C112.282 35.8035 112.08 35.6734 111.916 35.2401C111.792 34.9137 111.702 31.4958 111.702 27.1129V19.5491H114.111H116.52V27.4127C116.52 33.2359 116.451 35.3446 116.257 35.5399C116.112 35.6849 115.718 35.8035 115.381 35.8035C114.8 35.8035 114.768 35.8553 114.768 36.7963V37.7893L119.311 37.7298L123.855 37.6705V36.7919C123.855 35.9614 123.816 35.9096 123.144 35.8445C122.625 35.7942 122.402 35.646 122.318 35.2954C122.254 35.0312 122.229 27.5994 122.262 18.7803L122.322 2.74566L123.089 2.63584C123.814 2.53194 123.859 2.47549 123.922 1.59249L123.99 0.65896H119.366H114.743L114.81 1.59249C114.871 2.44825 114.932 2.53216 115.533 2.60069C115.894 2.64177 116.262 2.79003 116.351 2.93017C116.44 3.07031 116.514 6.37258 116.516 10.2688L116.52 17.3526H114.111H111.702V10.3657C111.702 2.89239 111.724 2.73446 112.797 2.59652C113.271 2.53546 113.353 2.40103 113.412 1.59249L113.479 0.65896H108.868H104.257V1.63422ZM166.246 4.256C165.351 7.65448 164.238 9.44509 163.021 9.44509C162.058 9.44509 161.847 9.6665 161.847 10.6767C161.847 11.5535 161.896 11.6416 162.382 11.6416H162.917L162.984 23.2283L163.052 34.815L163.599 35.9133C164.363 37.4458 165.482 38 167.813 38C171.41 38 171.908 37.2721 171.915 32.0019L171.92 28.5297L170.989 28.5973L170.059 28.6647L169.949 31.9595L169.84 35.2543H169.292H168.745L168.688 23.5578L168.631 11.8613H170.276H171.92V10.763V9.66474H170.278H168.635V6.04046V2.41618H167.683H166.731L166.246 4.256ZM26.4394 9.7548C22.894 11.076 21.7095 15.3232 21.9929 25.6994C22.199 33.2452 23.0871 36.0244 25.7275 37.3872C26.8627 37.973 29.6005 38.1762 31.0131 37.7795C32.3491 37.4043 33.7919 36.084 34.3901 34.6892C35.2943 32.5812 35.5253 30.8903 35.6532 25.4477C35.8844 15.616 34.9641 11.7646 31.9891 10.1144C30.7766 9.44179 27.7977 9.24872 26.4394 9.7548ZM39.769 9.58786C39.4077 9.63025 38.4963 9.72229 37.7435 9.79214L36.3749 9.91932V10.7874C36.3749 11.4136 36.4816 11.695 36.7581 11.7971C36.969 11.8753 37.2138 12.0451 37.3023 12.1747C37.3907 12.3043 37.4645 17.6269 37.4665 24.0026L37.4698 35.5948L36.9092 35.8085C36.4246 35.9933 36.3576 36.1345 36.4165 36.8464L36.4844 37.6705L40.1522 37.7307L43.82 37.7909V36.8229C43.82 36.0339 43.7375 35.8331 43.3742 35.7378C42.9323 35.6218 42.929 35.5263 42.991 24.6532C43.0604 12.4794 43.0098 12.8816 44.4581 13.0032L45.2434 13.0694L45.3001 24.3466C45.3561 35.4804 45.3513 35.6253 44.9169 35.7393C44.5602 35.8329 44.477 36.0381 44.477 36.8227V37.7907L48.2543 37.7307L52.0316 37.6705L52.0975 36.7655C52.1527 36.0077 52.0905 35.8415 51.7143 35.7428C51.2689 35.626 51.2652 35.5322 51.2652 24.5559C51.2652 16.2394 51.3304 13.4212 51.5279 13.2231C51.6725 13.0781 52.1529 12.9595 52.5954 12.9595C53.3216 12.9595 53.4135 13.0265 53.537 13.646C53.7133 14.5296 53.717 34.996 53.541 35.456C53.4678 35.6471 53.2708 35.8035 53.103 35.8035C52.8873 35.8035 52.798 36.0943 52.798 36.7972V37.7907L56.5753 37.7307L60.3526 37.6705L60.4192 36.7539C60.4781 35.9405 60.4288 35.8289 59.9812 35.7655L59.4767 35.6936L59.3672 23.7225C59.2912 15.4218 59.1809 11.583 59.0072 11.2023C58.8695 10.9003 58.492 10.4061 58.1685 10.104C57.6579 9.6274 57.3404 9.54481 55.7603 9.47847C53.5764 9.38666 52.6178 9.75106 51.7001 11.0218L51.0911 11.865L50.6704 11.0395C50.093 9.90636 49.1085 9.44575 47.2619 9.44553C45.3715 9.44509 44.4548 9.83541 43.6146 10.9987L42.9441 11.9272V10.6861V9.44509L41.685 9.47803C40.9926 9.49605 40.1303 9.54547 39.769 9.58786ZM65.8848 9.65134C63.6497 10.3731 62.4423 12.1549 61.6336 15.9249C61.1216 18.312 60.9839 27.8083 61.4197 30.6774C62.0148 34.5967 62.9236 36.4609 64.69 37.3872C65.4227 37.7713 66.0722 37.8847 67.9072 37.9486C69.9717 38.0204 70.3067 37.9767 71.1901 37.5201C72.9811 36.5942 73.5519 35.1023 73.6542 31.0809L73.71 28.8844H72.7246H71.7393L71.6298 31.5308C71.4857 35.014 71.284 35.3642 69.4205 35.3642C66.8831 35.3642 66.8003 35.1526 66.6496 28.2803L66.5351 23.0636H70.1644C72.1606 23.0636 73.8294 22.9896 73.8727 22.8988C73.9163 22.8081 73.8797 21.0043 73.7915 18.8902C73.5668 13.5058 72.9114 11.3293 71.1664 10.1708C70.3965 9.65991 70.0129 9.57007 68.3789 9.51801C67.3366 9.48506 66.2143 9.54481 65.8848 9.65134ZM77.98 9.57688C77.6789 9.61334 76.6638 9.70625 75.7239 9.78357L74.0153 9.92415L74.0816 10.8366C74.1414 11.6594 74.2126 11.7605 74.8049 11.8624L75.4618 11.9753L75.5185 23.7843L75.575 35.5933L75.0125 35.8079C74.5259 35.9932 74.4591 36.1338 74.518 36.8464L74.5859 37.6705H78.199H81.8121L81.8811 36.8299C81.9384 36.1299 81.8732 35.9693 81.4902 35.8689L81.0303 35.7481L81.0927 24.7169C81.1433 15.7595 81.2117 13.6174 81.4556 13.3226C81.855 12.84 83.3576 12.8288 83.5404 13.307C83.6136 13.4981 83.6734 18.5978 83.6734 24.6396C83.6734 35.4402 83.6659 35.6269 83.2354 35.7398C82.8815 35.8327 82.7975 36.0394 82.7975 36.8176V37.7803H86.6295H90.4616V36.7919C90.4616 35.9618 90.3939 35.8035 90.0387 35.8035C89.6273 35.8035 89.6141 35.4911 89.546 23.9971C89.4781 12.5165 89.4635 12.1631 89.013 11.1865C88.4063 9.87099 87.5326 9.44509 85.4398 9.44509C83.4732 9.44509 82.5643 9.82443 81.7162 10.9987L81.0457 11.9272V10.6861V9.44509L79.7866 9.47803C79.0939 9.49605 78.2811 9.54064 77.98 9.57688ZM95.1695 9.77523C93.072 10.5194 91.8214 12.9956 92.0688 15.9143C92.3101 18.7566 93.0879 20.5398 96.6734 26.4682C98.663 29.7582 99.0824 30.8914 99.0981 33.0222C99.1097 34.575 99.0602 34.7854 98.594 35.1638C97.9601 35.6787 96.4503 35.7229 95.7719 35.2462C95.2359 34.8697 94.9363 33.9204 94.7351 31.9595C94.6606 31.2347 94.5467 30.2711 94.4821 29.8179L94.3646 28.9942H93.289H92.2134V33.3873V37.7803H93.1714C94.0606 37.7803 94.1388 37.7331 94.2608 37.1214C94.4154 36.3462 94.8283 36.2781 95.4093 36.932C96.0708 37.6767 97.1122 38.0004 98.8303 37.9952C100.732 37.9895 101.875 37.5396 102.867 36.406C103.799 35.3411 104.138 34.2444 104.138 32.289C104.14 29.1177 103.076 26.321 100.015 21.4456C97.811 17.9345 97.2003 16.5078 97.077 14.5815C96.9333 12.3357 97.2513 11.8613 98.9004 11.8613C100.01 11.8613 100.135 11.9138 100.515 12.5411C100.742 12.9147 100.992 13.7797 101.07 14.4631C101.149 15.1462 101.271 16.1746 101.34 16.7486L101.467 17.7919H102.533H103.6V13.7283V9.66474H102.724C102.003 9.66474 101.848 9.74008 101.848 10.0911C101.848 10.6916 101.45 10.8673 101.005 10.4634C99.907 9.46639 97.0045 9.12395 95.1695 9.77523ZM127.99 9.97269C126.242 10.7894 125.33 12.2217 124.602 15.2955C124.048 17.6371 123.796 22.6792 123.995 27.4566C124.207 32.5388 125.012 35.3846 126.633 36.7754C127.777 37.7582 128.985 38.063 131.334 37.9622C133.44 37.8717 134.534 37.4792 135.186 36.5802C135.842 35.6761 136.227 33.6588 136.227 31.1319V28.7493L135.297 28.817L134.366 28.8844L134.253 31.5349C134.107 34.9708 133.892 35.3642 132.157 35.3642C129.723 35.3642 129.619 35.0878 129.492 28.2803L129.393 23.0636H133.171H136.948L136.816 19.3844C136.533 11.494 135.26 9.44575 130.643 9.44838C129.489 9.44926 128.834 9.57863 127.99 9.97269ZM141.401 9.86902C139.293 10.5636 138.197 11.9392 138.199 13.886C138.203 16.825 140.054 18.3773 142.079 17.1389C143.303 16.3905 143.331 14.4787 142.143 12.7882C141.766 12.2518 141.499 11.7714 141.55 11.7205C141.601 11.6695 142.136 11.5694 142.739 11.4975C143.673 11.3866 143.907 11.4376 144.307 11.8393C144.755 12.2887 144.775 12.4809 144.718 15.8407L144.658 19.3699L142.85 20.0899C140.588 20.9912 139.465 21.7301 138.655 22.8523C137.665 24.2238 137.432 25.5608 137.432 29.8728C137.432 33.0703 137.501 33.9199 137.846 34.9249C138.633 37.2218 139.617 38.0002 141.735 37.9996C143.221 37.9991 144.284 37.472 144.979 36.3902L145.52 35.5493L145.746 36.2199C146.193 37.5484 146.776 37.8831 148.769 37.9561C151.865 38.0692 152.861 37.0988 152.938 33.8964L152.979 32.1792H152.212H151.446L151.381 33.6618C151.325 34.9525 151.262 35.1445 150.898 35.1445C150.492 35.1445 150.477 34.8032 150.415 23.9907L150.351 12.8372L149.792 11.7451C148.93 10.0632 147.893 9.57951 144.986 9.50461C143.186 9.45826 142.408 9.53734 141.401 9.86902ZM68.789 11.9783C68.9846 12.2145 69.0995 13.5913 69.1746 16.5911L69.2817 20.8671H67.9072H66.5327L66.6906 17.1231C66.8524 13.2875 67.0328 12.1354 67.5201 11.8252C67.9565 11.5474 68.4853 11.6111 68.789 11.9783ZM131.41 11.8562C131.68 12.0273 131.75 12.844 131.806 16.4656L131.873 20.8671H130.656H129.439L129.453 18.396C129.471 15.1409 129.743 12.3974 130.09 11.9788C130.405 11.5972 130.925 11.5491 131.41 11.8562ZM29.8265 12.685C30.0299 13.2971 30.1002 16.1586 30.1004 23.833C30.1004 35.1039 30.07 35.4044 28.9094 35.5401C27.7138 35.6798 27.7254 35.7927 27.7254 23.9635C27.7254 17.9718 27.8012 12.7974 27.8938 12.4653C28.0353 11.9577 28.1813 11.8613 28.8074 11.8613C29.4739 11.8613 29.5817 11.9483 29.8265 12.685ZM144.776 34.1332C144.503 34.853 143.379 34.9475 143.023 34.2804C142.711 33.6944 142.726 24.418 143.041 23.1607C143.207 22.5004 143.544 21.9581 144.082 21.4843L144.877 20.7838L144.935 27.1724C144.97 31.0091 144.906 33.7897 144.776 34.1332Z" fill="white"/>
</svg>
