<svg width="126" height="52" viewBox="0 0 126 52" fill="none" xmlns="http://www.w3.org/2000/svg">
<path fill-rule="evenodd" clip-rule="evenodd" d="M0.0123017 0.382997L0.0246033 0.765993L1.92945 0.777374L3.83429 0.788798V25.9786V51.1684H1.91881H0.00332014V51.5624V51.9564L10.6343 51.9454L21.2652 51.9343V45.0404V38.1465L20.9611 38.1337L20.6569 38.1209L20.6299 38.7246C20.437 43.0363 19.7576 46.172 18.6315 47.9485C17.958 49.0108 16.6433 50.0258 15.3232 50.5024C14.2557 50.8877 13.0975 51.0467 10.9322 51.1051L9.87872 51.1334V38.4135V25.6936L10.2086 25.6947C10.9051 25.6971 11.739 25.8216 12.305 26.0076C12.6758 26.1295 13.2606 26.4415 13.4992 26.6447C14.0009 27.0719 14.5556 27.8234 14.9133 28.5606C15.5371 29.8461 15.7992 31.3093 15.8648 33.8724L15.8941 35.0168H16.2278H16.5616V25.2759V15.535L16.2317 15.5478L15.9019 15.5606L15.8926 16.1296C15.8777 17.0502 15.7955 18.5388 15.7293 19.0887C15.4899 21.0777 14.9184 22.437 13.8224 23.6244C13.1103 24.396 12.0628 24.7927 10.5917 24.848L9.87872 24.8748V12.8313V0.787879H10.7877C13.7192 0.787879 15.2329 1.22449 16.82 2.52787C17.6312 3.19406 18.1053 3.80208 18.5374 4.73038C19.3719 6.52333 19.9669 9.68067 20.0877 12.9571L20.1159 13.7222H20.4352H20.7544L20.7652 6.86111L20.776 0H10.388H0L0.0123017 0.382997ZM35.5462 0.350168V0.700337H37.4617H39.3772V25.9562V51.2121H37.4617H35.5462V51.6061V52H46.1878H56.8294V45.1061V38.2121H56.5141H56.1989L56.1749 38.617C56.092 40.0194 56.0521 40.5792 55.9963 41.1229C55.6836 44.1707 55.0336 46.6334 54.1883 47.9731C53.5198 49.0325 52.3354 49.965 50.9852 50.4949C49.8784 50.9292 48.2022 51.1682 46.2623 51.1683L45.4216 51.1684V25.9786V0.788842L47.1562 0.777418L48.8908 0.765993L48.9031 0.382997L48.9154 0H42.2308H35.5462V0.350168ZM69.727 0.350168V0.700337H71.6425H73.558V25.9562V51.2121H71.6425H69.727V51.6061V52H80.3473H90.9676V45.1061V38.2121H90.6484H90.3291V38.5807C90.3291 39.3931 90.1801 41.1518 90.0061 42.3923C89.5989 45.2957 88.913 47.3452 87.9519 48.5304C87.5057 49.0806 86.693 49.7274 85.9262 50.1425C84.6524 50.8321 82.8481 51.1683 80.4218 51.1684H79.5598V25.9781V0.787879H81.3051H83.0503V0.393939V0H76.3886H69.727V0.350168ZM104.726 0.382997L104.738 0.765993L106.664 0.777374L108.59 0.788754V25.9781V51.1675L106.664 51.1789L104.738 51.1902V51.5623V51.9343L115.369 51.9454L126 51.9564L125.989 45.0514L125.978 38.1465H125.68H125.383L125.353 38.8687C125.25 41.3305 124.916 43.7299 124.447 45.3686C123.814 47.5807 123.029 48.7493 121.483 49.7812C120.497 50.4391 119.498 50.774 117.924 50.9734C117.448 51.0337 115.691 51.121 114.901 51.1236L114.592 51.1246V38.4023V25.68L115.2 25.7084C115.9 25.7411 116.469 25.8315 116.954 25.9874C117.739 26.2392 118.223 26.5578 118.729 27.1547C120.043 28.7034 120.59 30.7655 120.593 34.1742L120.594 35.0168H120.956H121.318L121.307 25.2887L121.296 15.5606H120.956H120.615L120.588 16.8519C120.527 19.7428 120.162 21.3463 119.246 22.7484C118.881 23.3055 118.248 23.9676 117.863 24.1942C117.156 24.6097 116.34 24.8176 115.284 24.8513L114.592 24.8733V12.8246V0.775798L115.858 0.801535C117.99 0.844825 119.061 1.0477 120.189 1.62163C120.998 2.03299 122.009 2.83846 122.527 3.48466C123.803 5.07705 124.601 8.42825 124.832 13.1641L124.86 13.7441H125.174H125.489V6.87205V0H115.101H104.713L104.726 0.382997Z" fill="white"/>
</svg>
