<svg width="60" height="60" viewBox="0 0 60 60" fill="none" xmlns="http://www.w3.org/2000/svg">
<g clip-path="url(#clip0_2560_798)">
<path d="M48.5889 38.4763H11.3096V37.3125C11.25 38.5133 11.25 39.8053 11.25 41.3208C11.25 51.637 19.613 60.0001 29.9292 60.0001C40.2455 60.0001 48.6085 51.637 48.6085 41.3208C48.6085 40.2816 48.6085 39.348 48.5889 38.4763Z" fill="#7373D7"/>
<path d="M27.6113 0.656061C21.6484 13.8599 9.42303 27.9059 11.4807 43.2912C13.094 55.3511 24.3515 62.5798 35.9402 59.1434C40.9094 57.6701 45.1519 53.6026 47.1496 48.8639C49.8424 42.4772 48.7245 36.528 46.8184 30.0873C43.5733 19.127 35.0396 10.2741 29.541 0.409654C29.0183 -0.527878 27.5817 0.311239 28.1044 1.25025C32.6094 9.33064 38.6233 16.4757 42.9124 24.6523C48.4272 35.1642 49.8121 49.8761 37.9668 56.4988C32.6345 59.4794 25.7259 58.954 20.6717 55.7448C15.5826 52.5133 13.1878 46.3058 12.8891 40.5237C12.5254 33.4786 16.0447 26.4408 19.1493 20.3472C22.3729 14.019 26.1222 7.97725 29.0493 1.49592C29.4863 0.526568 28.0527 -0.320689 27.6113 0.656061Z" fill="#222222"/>
</g>
<defs>
<clipPath id="clip0_2560_798">
<rect width="60" height="60" fill="white"/>
</clipPath>
</defs>
</svg>
