<svg width="60" height="60" viewBox="0 0 60 60" fill="none" xmlns="http://www.w3.org/2000/svg">
<path d="M6 16.5L30.5 3C29.1667 4 25.2 10.8 24 26C22.8 41.2 39.5 47 47.5 48.5L30.5 58.5L6 44V16.5Z" fill="#7373D7"/>
<path d="M34.973 32.3009C34.973 32.9871 34.8477 33.5481 34.5972 33.9838C34.3467 34.4195 34.0145 34.7572 33.6005 34.9968C33.1975 35.2364 32.7346 35.3998 32.2117 35.487C31.6889 35.5741 31.1606 35.6177 30.6269 35.6177H27.1304V23.8047H30.2511C30.872 23.8047 31.4384 23.8483 31.9503 23.9354C32.4732 24.0225 32.9252 24.1805 33.3064 24.4092C33.6877 24.638 33.9818 24.9484 34.1887 25.3405C34.4066 25.7218 34.5155 26.2119 34.5155 26.811C34.5155 27.5735 34.3358 28.1563 33.9763 28.5593C33.6278 28.9514 33.1267 29.251 32.4732 29.4579C32.8435 29.5342 33.1812 29.6377 33.4862 29.7684C33.8021 29.8991 34.0689 30.0788 34.2868 30.3075C34.5046 30.5254 34.6735 30.7977 34.7933 31.1245C34.9131 31.4513 34.973 31.8434 34.973 32.3009ZM32.2281 27.1215C32.2281 26.7838 32.1627 26.5115 32.032 26.3045C31.9122 26.0976 31.7543 25.9396 31.5582 25.8307C31.3621 25.7218 31.1388 25.651 30.8883 25.6183C30.6487 25.5856 30.409 25.5693 30.1694 25.5693H29.3361V28.7227H30.0714C30.3328 28.7227 30.5942 28.7063 30.8556 28.6737C31.117 28.641 31.3458 28.5702 31.5419 28.4613C31.7488 28.3523 31.9122 28.1944 32.032 27.9874C32.1627 27.7696 32.2281 27.4809 32.2281 27.1215ZM32.6202 32.1375C32.6202 31.7671 32.5603 31.4676 32.4405 31.2389C32.3207 31.0101 32.1573 30.8358 31.9503 30.716C31.7543 30.5962 31.5255 30.5145 31.2641 30.4709C31.0027 30.4274 30.7249 30.4056 30.4308 30.4056H29.3361V33.8531H30.2838C30.567 33.8531 30.8447 33.8367 31.117 33.8041C31.4003 33.7605 31.6508 33.6788 31.8686 33.559C32.0974 33.4392 32.2771 33.2703 32.4078 33.0525C32.5494 32.8237 32.6202 32.5187 32.6202 32.1375Z" fill="#42210B"/>
<path d="M36 37.8417C36.4213 37.964 36.8063 38 37.2349 38C38.3753 38 39 37.3741 39 36.5036C39 35.9065 38.6804 35.5036 38.1356 35.295C38.5787 35.0576 38.8039 34.6835 38.8039 34.2734C38.8039 33.4317 38.1501 33 37.2567 33C36.8281 33 36.4213 33.0647 36.0145 33.2014L36.1017 33.8777C36.4504 33.7554 36.7845 33.6906 37.1404 33.6906C37.6852 33.6906 37.9177 33.9281 37.9177 34.3165C37.9177 34.6978 37.5835 35.0144 36.8862 35.0144H36.6392V35.6763H37.046C37.7143 35.6763 38.1138 35.9784 38.1138 36.4604C38.1138 36.964 37.7797 37.3094 37.1041 37.3094C36.7627 37.3094 36.4213 37.2518 36.0799 37.1655L36 37.8417Z" fill="#222222"/>
<path d="M30.5006 2.0001C30.3856 1.99811 30.2693 2.02627 30.1693 2.08291L5.65741 15.9951C5.55837 16.0513 5.46622 16.1452 5.40898 16.2435C5.35201 16.3418 5.32617 16.4611 5.32617 16.5748V44.399C5.32617 44.5127 5.35201 44.632 5.40898 44.7303C5.46596 44.8286 5.55837 44.9018 5.65741 44.9581L30.1693 58.8703C30.2664 58.9253 30.3682 58.9737 30.4799 58.9737C30.5915 58.9737 30.714 58.9254 30.8111 58.8703L55.323 44.9581C55.4221 44.9018 55.5142 44.8286 55.5715 44.7303C55.6291 44.632 55.675 44.5127 55.675 44.399V16.5748C55.675 16.4611 55.6286 16.3418 55.5715 16.2435C55.5145 16.1452 55.4221 16.0513 55.323 15.9951L30.8111 2.08291C30.717 2.02958 30.6088 2.00185 30.5006 2.0001ZM30.4801 3.40788L30.8113 3.5942L53.9983 16.7611L54.3502 16.9474V17.3408V43.6123V44.0057L53.9983 44.192L30.8113 57.3589L30.4801 57.5453L30.1695 57.3589L6.98258 44.192L6.65134 44.0057V43.6123V17.3408V16.9474L6.98258 16.7611L30.1695 3.5942L30.4801 3.40788Z" fill="#222222" stroke="#222222"/>
</svg>
