<svg width="17" height="13" viewBox="0 0 17 13" fill="none" xmlns="http://www.w3.org/2000/svg">
<path fill-rule="evenodd" clip-rule="evenodd" d="M16.4062 1.39589C15.791 1.67507 15.1757 1.76813 14.458 1.86119C15.1757 1.48895 15.6884 0.930596 15.8935 0.186119C15.2783 0.558358 14.5605 0.744477 13.7402 0.930596C13.125 0.372239 12.2021 0 11.2793 0C9.53611 0 7.99802 1.39589 7.99802 3.07097C7.99802 3.35015 7.99802 3.53627 8.10056 3.72238C5.33202 3.62933 2.76855 2.41955 1.12793 0.558358C0.82031 1.02366 0.717771 1.48895 0.717771 2.14037C0.717771 3.16403 1.333 4.09462 2.25585 4.65298C1.74316 4.65298 1.23047 4.46686 0.717771 4.28074C0.717771 5.7697 1.8457 6.97947 3.38378 7.25865C3.07616 7.35171 2.76855 7.35171 2.46093 7.35171C2.25585 7.35171 2.05078 7.35171 1.8457 7.25865C2.25585 8.46843 3.48632 9.39902 5.0244 9.39902C3.89647 10.2366 2.46093 10.7019 0.82031 10.7019C0.512694 10.7019 0.307616 10.7019 0 10.7019C1.53808 11.5394 3.28124 12.0978 5.12694 12.0978C11.2793 12.0978 14.663 7.44477 14.663 3.44321C14.663 3.35015 14.663 3.16403 14.663 3.07097C15.3808 2.60567 15.996 2.04731 16.4062 1.39589Z" fill="#7373D7"/>
</svg>
